HIERARCHY
ROOT Hips
{
	OFFSET 55.310501 45.591206 43.872097
	CHANNELS 6 Xposition Yposition Zposition Zrotation Xrotation Yrotation
	JOINT Chest
	{
		OFFSET -0.153500 1.163101 7.852402
		CHANNELS 6 Xposition Yposition Zposition Zrotation Xrotation Yrotation
		JOINT Chest2
		{
			OFFSET 0.000000 0.000000 3.343300
			CHANNELS 6 Xposition Yposition Zposition Zrotation Xrotation Yrotation
			JOINT Neck
			{
				OFFSET 0.000000 0.000000 7.785500
				CHANNELS 6 Xposition Yposition Zposition Zrotation Xrotation Yrotation
				JOINT Head
				{
					OFFSET 0.000000 0.000000 2.173901
					CHANNELS 6 Xposition Yposition Zposition Zrotation Xrotation Yrotation
					End Site
					{
						OFFSET 0.000000 0.000000 10.528198
					}
				}
			}
			JOINT LeftCollar
			{
				OFFSET 2.676300 -1.652401 4.938301
				CHANNELS 6 Xposition Yposition Zposition Zrotation Xrotation Yrotation
				JOINT LeftShoulder
				{
					OFFSET 4.299000 0.000000 0.000000
					CHANNELS 6 Xposition Yposition Zposition Zrotation Xrotation Yrotation
					JOINT LeftElbow
					{
						OFFSET 0.000000 0.000000 -10.245102
						CHANNELS 6 Xposition Yposition Zposition Zrotation Xrotation Yrotation
						JOINT LeftWrist
						{
							OFFSET 0.000000 0.000000 -12.703300
							CHANNELS 6 Xposition Yposition Zposition Zrotation Xrotation Yrotation
							End Site
							{
								OFFSET 0.000000 0.000000 -2.173901
							}
						}
					}
				}
			}
			JOINT RightCollar
			{
				OFFSET -2.534599 -1.686401 5.195000
				CHANNELS 6 Xposition Yposition Zposition Zrotation Xrotation Yrotation
				JOINT RightShoulder
				{
					OFFSET -4.144100 0.000000 0.000000
					CHANNELS 6 Xposition Yposition Zposition Zrotation Xrotation Yrotation
					JOINT RightElbow
					{
						OFFSET 0.000000 0.000000 -10.116501
						CHANNELS 6 Xposition Yposition Zposition Zrotation Xrotation Yrotation
						JOINT RightWrist
						{
							OFFSET 0.000000 0.000000 -12.937801
							CHANNELS 6 Xposition Yposition Zposition Zrotation Xrotation Yrotation
							End Site
							{
								OFFSET 0.000000 0.000000 -2.173901
							}
						}
					}
				}
			}
		}
	}
	JOINT LeftHip
	{
		OFFSET 2.175598 0.064499 -2.662899
		CHANNELS 6 Xposition Yposition Zposition Zrotation Xrotation Yrotation
		JOINT LeftKnee
		{
			OFFSET 0.000000 -0.000004 -18.585800
			CHANNELS 6 Xposition Yposition Zposition Zrotation Xrotation Yrotation
			JOINT LeftAnkle
			{
				OFFSET 0.000000 0.000000 -18.979500
				CHANNELS 6 Xposition Yposition Zposition Zrotation Xrotation Yrotation
				End Site
				{
					OFFSET 0.000000 -9.264000 0.000000
				}
			}
		}
	}
	JOINT RightHip
	{
		OFFSET -2.092400 -0.058102 -2.581200
		CHANNELS 6 Xposition Yposition Zposition Zrotation Xrotation Yrotation
		JOINT RightKnee
		{
			OFFSET 0.000000 -0.000004 -18.665001
			CHANNELS 6 Xposition Yposition Zposition Zrotation Xrotation Yrotation
			JOINT RightAnkle
			{
				OFFSET 0.000000 0.000000 -18.566601
				CHANNELS 6 Xposition Yposition Zposition Zrotation Xrotation Yrotation
				End Site
				{
					OFFSET 0.000000 -8.497601 0.000000
				}
			}
		}
	}
}
MOTION
Frames: 6
Frame Time: 0.041667
82.621109 20.709404 19.964197 1497.166319 48.545389 -26.064190 -0.153511 1.163106 7.852402 29.409780 2.188195 2.323185 -0.000005 0.000002 3.343294 -1.526470 -11.073968 0.087357 0.000002 -0.000007 7.785500 -54.198688 -16.419585 10.096555 0.000006 0.000006 2.173900 -7.173895 -4.870402 -9.857818 2.676294 -1.652417 4.938295 9.630179 2.819852 -3.832782 4.299006 0.000008 -0.000004 7.503019 2.466658 -97.093420 -0.000001 -0.000011 -10.245107 46.020858 724.361287 -3.866249 0.000007 -0.000005 -12.703299 1349.773788 -187.552610 566.802593 -2.534599 -1.686415 5.194999 10.552712 11.807084 -11.936004 -4.144097 0.000016 0.000009 1.648036 -3.666253 118.038796 0.000004 -0.000007 -10.116501 -57.669063 -1.214220 2.392404 0.000001 -0.000000 -12.937802 -430.921334 -356.917901 -5.048019 2.175594 0.064501 -2.662892 -569.276050 0.812864 116.180739 -0.000001 0.000002 -18.585802 43.711411 -189.380396 -53.278969 -0.000008 -0.000006 -18.979509 777.000244 3.773152 -125.969111 -2.092394 -0.058099 -2.581197 877.745807 46.245076 -74.326515 0.000003 -0.000002 -18.665005 -1421.789007 -2.462599 7.805378 0.000003 0.000007 -18.566616 537.381034 36.150183 -68.106821
82.644608 20.748003 19.921394 1497.185116 48.469208 -25.802143 -0.153492 1.163108 7.852406 29.435718 2.308374 2.247259 0.000004 -0.000000 3.343306 -1.528971 -11.095176 0.086884 0.000002 0.000008 7.785501 -54.339482 -16.427242 9.920776 0.000007 0.000006 2.173909 -7.128823 -4.852444 -9.852417 2.676293 -1.652393 4.938304 9.617923 2.769365 -3.831575 4.299003 -0.000003 0.000003 7.612084 2.178385 -97.205039 -0.000000 -0.000002 -10.245096 46.264696 724.321016 -3.882811 -0.000001 0.000007 -12.703302 1349.062246 -187.521928 567.035038 -2.534595 -1.686393 5.195001 10.193285 11.547989 -11.919382 -4.144097 0.000016 -0.000001 1.624431 -3.319993 117.977502 0.000005 0.000005 -10.116495 -57.857351 -1.226732 2.405609 0.000006 0.000006 -12.937799 -430.698233 -356.849326 -5.141649 2.175604 0.064508 -2.662890 -569.311239 0.689888 116.328476 -0.000004 -0.000010 -18.585794 43.803304 -189.659218 -53.012749 -0.000009 -0.000005 -18.979517 777.082479 3.637711 -125.942924 -2.092388 -0.058096 -2.581197 877.812634 46.144376 -74.282528 0.000002 -0.000010 -18.665001 -1422.844353 -3.051702 7.696659 0.000004 0.000002 -18.566608 538.443046 35.938082 -68.377276
82.673599 20.794006 19.876694 1497.186974 48.404140 -25.573295 -0.153511 1.163105 7.852403 29.505359 2.452239 2.203840 0.000004 -0.000008 3.343303 -1.545344 -11.104672 0.086116 0.000000 -0.000008 7.785499 -54.476752 -16.459064 9.771917 -0.000000 0.000010 2.173912 -7.120575 -4.834198 -9.803486 2.676291 -1.652406 4.938293 9.544737 2.760662 -3.833492 4.298998 -0.000009 -0.000001 7.745912 1.790119 -97.281674 0.000006 0.000008 -10.245108 46.669911 724.276483 -3.893412 -0.000001 0.000002 -12.703297 1348.047990 -187.449050 567.245025 -2.534599 -1.686408 5.195001 9.846174 11.309083 -11.834033 -4.144103 0.000004 -0.000011 1.521755 -2.979389 117.848398 0.000003 -0.000005 -10.116500 -58.053377 -1.238882 2.426475 0.000007 0.000015 -12.937799 -430.367569 -356.950795 -5.284371 2.175591 0.064507 -2.662898 -569.352657 0.610790 116.493207 0.000001 0.000003 -18.585802 43.868290 -189.843469 -52.820445 -0.000004 0.000000 -18.979513 777.214110 3.484912 -125.934195 -2.092399 -0.058095 -2.581202 878.024533 46.021695 -74.361608 0.000005 -0.000007 -18.665005 -1424.268858 -3.783052 7.523527 0.000005 0.000003 -18.566612 539.853890 35.558498 -68.777683
82.708099 20.844007 19.832298 1497.107743 48.374200 -25.273706 -0.153506 1.163103 7.852407 29.604608 2.595745 2.169853 0.000010 0.000011 3.343300 -1.557575 -11.131854 0.085852 0.000000 0.000001 7.785503 -54.581479 -16.466369 9.625106 -0.000008 0.000001 2.173904 -7.106323 -4.798138 -9.700193 2.676302 -1.652399 4.938303 9.521249 2.747461 -3.865959 4.299000 0.000006 0.000002 7.842527 1.358905 -97.338330 -0.000000 -0.000003 -10.245102 47.216483 724.226486 -3.885354 0.000001 -0.000001 -12.703295 1346.915709 -187.338893 567.347751 -2.534597 -1.686393 5.195002 9.520263 11.121570 -11.753780 -4.144103 0.000016 -0.000011 1.374291 -2.622669 117.694596 0.000006 -0.000006 -10.116498 -58.224433 -1.242430 2.461180 0.000004 0.000010 -12.937808 -429.968495 -356.982159 -5.541063 2.175594 0.064503 -2.662894 -569.380743 0.520109 116.719382 -0.000003 -0.000007 -18.585808 43.866825 -189.969035 -52.627034 0.000005 -0.000001 -18.979521 777.359785 3.216590 -125.934727 -2.092396 -0.058098 -2.581205 878.340034 45.883093 -74.454007 0.000005 -0.000001 -18.664995 -1425.618284 -4.523837 7.354221 0.000004 0.000009 -18.566601 541.129278 35.182800 -69.060097
82.747208 20.896404 19.787090 1496.912783 48.379511 -24.882372 -0.153514 1.163102 7.852403 29.733217 2.743582 2.148051 0.000001 -0.000010 3.343303 -1.560989 -11.152686 0.085687 0.000010 -0.000013 7.785502 -54.643375 -16.464323 9.463731 0.000003 -0.000003 2.173908 -7.090778 -4.782616 -9.611284 2.676304 -1.652406 4.938301 9.581579 2.700851 -3.959370 4.299001 0.000000 -0.000004 7.873393 0.933941 -97.336848 -0.000004 -0.000006 -10.245095 47.820227 724.173320 -3.854394 0.000005 -0.000003 -12.703292 1345.685947 -187.238694 567.447417 -2.534591 -1.686407 5.195002 9.267687 11.004592 -11.697529 -4.144105 -0.000000 -0.000001 1.181388 -2.332726 117.526833 -0.000001 -0.000003 -10.116504 -58.315527 -1.236566 2.514047 0.000003 0.000010 -12.937809 -429.496502 -357.088382 -5.861344 2.175594 0.064497 -2.662894 -569.368941 0.471416 116.990035 -0.000001 -0.000011 -18.585800 43.767347 -190.026586 -52.489150 0.000009 -0.000008 -18.979511 777.511415 2.912868 -125.984793 -2.092399 -0.058098 -2.581195 878.782521 45.713059 -74.577108 0.000003 0.000001 -18.665001 -1427.391292 -5.391803 7.096054 0.000005 0.000006 -18.566607 542.779287 34.608480 -69.473911
82.791702 20.949408 19.742296 1496.590288 48.434985 -24.399051 -0.153500 1.163103 7.852407 29.929728 2.844589 2.142507 0.000006 -0.000008 3.343305 -1.564421 -11.152491 0.085222 0.000004 -0.000001 7.785499 -54.634854 -16.433973 9.364440 -0.000003 -0.000001 2.173914 -7.115884 -4.784944 -9.556143 2.676293 -1.652396 4.938293 9.520119 2.744370 -4.043129 4.299004 -0.000001 -0.000005 8.046342 0.457030 -97.320702 -0.000000 -0.000012 -10.245100 48.259077 724.140699 -3.809875 0.000008 -0.000010 -12.703302 1344.590166 -187.163002 567.511020 -2.534596 -1.686397 5.194993 9.200023 11.011141 -11.658960 -4.144098 0.000014 -0.000015 0.840658 -2.183365 117.325807 0.000009 -0.000004 -10.116495 -58.337773 -1.218401 2.594829 -0.000003 0.000008 -12.937803 -428.916646 -357.219850 -6.161216 2.175594 0.064508 -2.662896 -569.255122 0.505237 117.285263 -0.000001 -0.000004 -18.585796 43.579790 -189.987354 -52.315161 0.000008 -0.000005 -18.979511 777.642172 2.619843 -125.956147 -2.092399 -0.058089 -2.581201 879.353306 45.531574 -74.721491 0.000005 -0.000002 -18.665009 -1429.435322 -6.334096 6.754202 0.000001 0.000009 -18.566601 544.653874 33.916814 -69.945365
